<mxfile host="Electron" modified="2023-10-22T16:46:59.524Z" agent="Mozilla/5.0 (Windows NT 10.0; Win64; x64) AppleWebKit/537.36 (KHTML, like Gecko) draw.io/22.0.3 Chrome/114.0.5735.289 Electron/25.8.4 Safari/537.36" etag="_C0N2ROCUSSjbm9pKz8c" version="22.0.3" type="device">
  <diagram id="R2lEEEUBdFMjLlhIrx00" name="Page-1">
    <mxGraphModel dx="844" dy="496" grid="1" gridSize="10" guides="1" tooltips="1" connect="1" arrows="1" fold="1" page="1" pageScale="1" pageWidth="1169" pageHeight="827" math="0" shadow="0" extFonts="Permanent Marker^https://fonts.googleapis.com/css?family=Permanent+Marker">
      <root>
        <mxCell id="0" />
        <mxCell id="1" parent="0" />
        <mxCell id="lJtzv6-tOGQJy9W8qOaK-1" value="Question" style="swimlane;fontStyle=0;childLayout=stackLayout;horizontal=1;startSize=26;horizontalStack=0;resizeParent=1;resizeParentMax=0;resizeLast=0;collapsible=1;marginBottom=0;align=center;fontSize=14;" parent="1" vertex="1">
          <mxGeometry x="534" y="152" width="160" height="116" as="geometry" />
        </mxCell>
        <mxCell id="lJtzv6-tOGQJy9W8qOaK-2" value="&amp;lt;&amp;lt;PK&amp;gt;&amp;gt; ID" style="text;strokeColor=none;fillColor=none;spacingLeft=4;spacingRight=4;overflow=hidden;rotatable=0;points=[[0,0.5],[1,0.5]];portConstraint=eastwest;fontSize=12;whiteSpace=wrap;html=1;" parent="lJtzv6-tOGQJy9W8qOaK-1" vertex="1">
          <mxGeometry y="26" width="160" height="30" as="geometry" />
        </mxCell>
        <mxCell id="lJtzv6-tOGQJy9W8qOaK-6" value="Type" style="text;strokeColor=none;fillColor=none;spacingLeft=4;spacingRight=4;overflow=hidden;rotatable=0;points=[[0,0.5],[1,0.5]];portConstraint=eastwest;fontSize=12;whiteSpace=wrap;html=1;" parent="lJtzv6-tOGQJy9W8qOaK-1" vertex="1">
          <mxGeometry y="56" width="160" height="30" as="geometry" />
        </mxCell>
        <mxCell id="lJtzv6-tOGQJy9W8qOaK-3" value="Text" style="text;strokeColor=none;fillColor=none;spacingLeft=4;spacingRight=4;overflow=hidden;rotatable=0;points=[[0,0.5],[1,0.5]];portConstraint=eastwest;fontSize=12;whiteSpace=wrap;html=1;" parent="lJtzv6-tOGQJy9W8qOaK-1" vertex="1">
          <mxGeometry y="86" width="160" height="30" as="geometry" />
        </mxCell>
        <mxCell id="lJtzv6-tOGQJy9W8qOaK-5" value="Answer" style="swimlane;fontStyle=0;childLayout=stackLayout;horizontal=1;startSize=26;horizontalStack=0;resizeParent=1;resizeParentMax=0;resizeLast=0;collapsible=1;marginBottom=0;align=center;fontSize=14;" parent="1" vertex="1">
          <mxGeometry x="856" y="152" width="160" height="176" as="geometry" />
        </mxCell>
        <mxCell id="lJtzv6-tOGQJy9W8qOaK-10" value="&amp;lt;&amp;lt;PK&amp;gt;&amp;gt; ID" style="text;strokeColor=none;fillColor=none;spacingLeft=4;spacingRight=4;overflow=hidden;rotatable=0;points=[[0,0.5],[1,0.5]];portConstraint=eastwest;fontSize=12;whiteSpace=wrap;html=1;" parent="lJtzv6-tOGQJy9W8qOaK-5" vertex="1">
          <mxGeometry y="26" width="160" height="30" as="geometry" />
        </mxCell>
        <mxCell id="lJtzv6-tOGQJy9W8qOaK-7" value="Text" style="text;strokeColor=none;fillColor=none;spacingLeft=4;spacingRight=4;overflow=hidden;rotatable=0;points=[[0,0.5],[1,0.5]];portConstraint=eastwest;fontSize=12;whiteSpace=wrap;html=1;" parent="lJtzv6-tOGQJy9W8qOaK-5" vertex="1">
          <mxGeometry y="56" width="160" height="30" as="geometry" />
        </mxCell>
        <mxCell id="lJtzv6-tOGQJy9W8qOaK-8" value="Picture" style="text;strokeColor=none;fillColor=none;spacingLeft=4;spacingRight=4;overflow=hidden;rotatable=0;points=[[0,0.5],[1,0.5]];portConstraint=eastwest;fontSize=12;whiteSpace=wrap;html=1;" parent="lJtzv6-tOGQJy9W8qOaK-5" vertex="1">
          <mxGeometry y="86" width="160" height="30" as="geometry" />
        </mxCell>
        <mxCell id="lJtzv6-tOGQJy9W8qOaK-9" value="IsCorrect" style="text;strokeColor=none;fillColor=none;spacingLeft=4;spacingRight=4;overflow=hidden;rotatable=0;points=[[0,0.5],[1,0.5]];portConstraint=eastwest;fontSize=12;whiteSpace=wrap;html=1;" parent="lJtzv6-tOGQJy9W8qOaK-5" vertex="1">
          <mxGeometry y="116" width="160" height="30" as="geometry" />
        </mxCell>
        <mxCell id="lJtzv6-tOGQJy9W8qOaK-68" value="Order" style="text;strokeColor=none;fillColor=none;spacingLeft=4;spacingRight=4;overflow=hidden;rotatable=0;points=[[0,0.5],[1,0.5]];portConstraint=eastwest;fontSize=12;whiteSpace=wrap;html=1;" parent="lJtzv6-tOGQJy9W8qOaK-5" vertex="1">
          <mxGeometry y="146" width="160" height="30" as="geometry" />
        </mxCell>
        <mxCell id="lJtzv6-tOGQJy9W8qOaK-11" value="User" style="swimlane;fontStyle=0;childLayout=stackLayout;horizontal=1;startSize=26;horizontalStack=0;resizeParent=1;resizeParentMax=0;resizeLast=0;collapsible=1;marginBottom=0;align=center;fontSize=14;" parent="1" vertex="1">
          <mxGeometry x="154" y="414" width="160" height="116" as="geometry" />
        </mxCell>
        <mxCell id="lJtzv6-tOGQJy9W8qOaK-12" value="&amp;lt;&amp;lt;PK&amp;gt;&amp;gt; ID" style="text;strokeColor=none;fillColor=none;spacingLeft=4;spacingRight=4;overflow=hidden;rotatable=0;points=[[0,0.5],[1,0.5]];portConstraint=eastwest;fontSize=12;whiteSpace=wrap;html=1;" parent="lJtzv6-tOGQJy9W8qOaK-11" vertex="1">
          <mxGeometry y="26" width="160" height="30" as="geometry" />
        </mxCell>
        <mxCell id="lJtzv6-tOGQJy9W8qOaK-13" value="Name" style="text;strokeColor=none;fillColor=none;spacingLeft=4;spacingRight=4;overflow=hidden;rotatable=0;points=[[0,0.5],[1,0.5]];portConstraint=eastwest;fontSize=12;whiteSpace=wrap;html=1;" parent="lJtzv6-tOGQJy9W8qOaK-11" vertex="1">
          <mxGeometry y="56" width="160" height="30" as="geometry" />
        </mxCell>
        <mxCell id="lJtzv6-tOGQJy9W8qOaK-15" value="ProfilePictureUrl" style="text;strokeColor=none;fillColor=none;spacingLeft=4;spacingRight=4;overflow=hidden;rotatable=0;points=[[0,0.5],[1,0.5]];portConstraint=eastwest;fontSize=12;whiteSpace=wrap;html=1;" parent="lJtzv6-tOGQJy9W8qOaK-11" vertex="1">
          <mxGeometry y="86" width="160" height="30" as="geometry" />
        </mxCell>
        <mxCell id="lJtzv6-tOGQJy9W8qOaK-17" value="Quiz" style="swimlane;fontStyle=0;childLayout=stackLayout;horizontal=1;startSize=26;horizontalStack=0;resizeParent=1;resizeParentMax=0;resizeLast=0;collapsible=1;marginBottom=0;align=center;fontSize=14;" parent="1" vertex="1">
          <mxGeometry x="154" y="150" width="160" height="176" as="geometry" />
        </mxCell>
        <mxCell id="lJtzv6-tOGQJy9W8qOaK-18" value="&amp;lt;&amp;lt;PK&amp;gt;&amp;gt; ID" style="text;strokeColor=none;fillColor=none;spacingLeft=4;spacingRight=4;overflow=hidden;rotatable=0;points=[[0,0.5],[1,0.5]];portConstraint=eastwest;fontSize=12;whiteSpace=wrap;html=1;" parent="lJtzv6-tOGQJy9W8qOaK-17" vertex="1">
          <mxGeometry y="26" width="160" height="30" as="geometry" />
        </mxCell>
        <mxCell id="lJtzv6-tOGQJy9W8qOaK-19" value="StartTs" style="text;strokeColor=none;fillColor=none;spacingLeft=4;spacingRight=4;overflow=hidden;rotatable=0;points=[[0,0.5],[1,0.5]];portConstraint=eastwest;fontSize=12;whiteSpace=wrap;html=1;" parent="lJtzv6-tOGQJy9W8qOaK-17" vertex="1">
          <mxGeometry y="56" width="160" height="30" as="geometry" />
        </mxCell>
        <mxCell id="lJtzv6-tOGQJy9W8qOaK-37" value="EndTs" style="text;strokeColor=none;fillColor=none;spacingLeft=4;spacingRight=4;overflow=hidden;rotatable=0;points=[[0,0.5],[1,0.5]];portConstraint=eastwest;fontSize=12;whiteSpace=wrap;html=1;" parent="lJtzv6-tOGQJy9W8qOaK-17" vertex="1">
          <mxGeometry y="86" width="160" height="30" as="geometry" />
        </mxCell>
        <mxCell id="lJtzv6-tOGQJy9W8qOaK-20" value="Name" style="text;strokeColor=none;fillColor=none;spacingLeft=4;spacingRight=4;overflow=hidden;rotatable=0;points=[[0,0.5],[1,0.5]];portConstraint=eastwest;fontSize=12;whiteSpace=wrap;html=1;" parent="lJtzv6-tOGQJy9W8qOaK-17" vertex="1">
          <mxGeometry y="116" width="160" height="30" as="geometry" />
        </mxCell>
        <mxCell id="lJtzv6-tOGQJy9W8qOaK-67" value="Description" style="text;strokeColor=none;fillColor=none;spacingLeft=4;spacingRight=4;overflow=hidden;rotatable=0;points=[[0,0.5],[1,0.5]];portConstraint=eastwest;fontSize=12;whiteSpace=wrap;html=1;" parent="lJtzv6-tOGQJy9W8qOaK-17" vertex="1">
          <mxGeometry y="146" width="160" height="30" as="geometry" />
        </mxCell>
        <mxCell id="lJtzv6-tOGQJy9W8qOaK-23" value="UserAnswer" style="swimlane;fontStyle=0;childLayout=stackLayout;horizontal=1;startSize=26;horizontalStack=0;resizeParent=1;resizeParentMax=0;resizeLast=0;collapsible=1;marginBottom=0;align=center;fontSize=14;" parent="1" vertex="1">
          <mxGeometry x="526" y="449" width="160" height="116" as="geometry" />
        </mxCell>
        <mxCell id="lJtzv6-tOGQJy9W8qOaK-24" value="&amp;lt;&amp;lt;PK&amp;gt;&amp;gt; ID" style="text;strokeColor=none;fillColor=none;spacingLeft=4;spacingRight=4;overflow=hidden;rotatable=0;points=[[0,0.5],[1,0.5]];portConstraint=eastwest;fontSize=12;whiteSpace=wrap;html=1;" parent="lJtzv6-tOGQJy9W8qOaK-23" vertex="1">
          <mxGeometry y="26" width="160" height="30" as="geometry" />
        </mxCell>
        <mxCell id="lJtzv6-tOGQJy9W8qOaK-60" value="AnswerTs" style="text;strokeColor=none;fillColor=none;spacingLeft=4;spacingRight=4;overflow=hidden;rotatable=0;points=[[0,0.5],[1,0.5]];portConstraint=eastwest;fontSize=12;whiteSpace=wrap;html=1;" parent="lJtzv6-tOGQJy9W8qOaK-23" vertex="1">
          <mxGeometry y="56" width="160" height="30" as="geometry" />
        </mxCell>
        <mxCell id="ovTWipUCg8--vFzlMRwv-2" value="AnswerScore" style="text;strokeColor=none;fillColor=none;spacingLeft=4;spacingRight=4;overflow=hidden;rotatable=0;points=[[0,0.5],[1,0.5]];portConstraint=eastwest;fontSize=12;whiteSpace=wrap;html=1;" vertex="1" parent="lJtzv6-tOGQJy9W8qOaK-23">
          <mxGeometry y="86" width="160" height="30" as="geometry" />
        </mxCell>
        <mxCell id="lJtzv6-tOGQJy9W8qOaK-27" value="" style="endArrow=none;html=1;rounded=0;exitX=-0.002;exitY=0.13;exitDx=0;exitDy=0;exitPerimeter=0;entryX=1.002;entryY=0.13;entryDx=0;entryDy=0;entryPerimeter=0;" parent="1" source="lJtzv6-tOGQJy9W8qOaK-7" target="lJtzv6-tOGQJy9W8qOaK-6" edge="1">
          <mxGeometry width="50" height="50" relative="1" as="geometry">
            <mxPoint x="187" y="342" as="sourcePoint" />
            <mxPoint x="297" y="272" as="targetPoint" />
          </mxGeometry>
        </mxCell>
        <mxCell id="lJtzv6-tOGQJy9W8qOaK-29" value="Has" style="edgeLabel;html=1;align=center;verticalAlign=middle;resizable=0;points=[];fontSize=15;" parent="lJtzv6-tOGQJy9W8qOaK-27" vertex="1" connectable="0">
          <mxGeometry x="0.0486" y="-2" relative="1" as="geometry">
            <mxPoint y="-13" as="offset" />
          </mxGeometry>
        </mxCell>
        <mxCell id="lJtzv6-tOGQJy9W8qOaK-30" value="0..*" style="text;html=1;strokeColor=none;fillColor=none;align=center;verticalAlign=middle;whiteSpace=wrap;rounded=0;fontSize=15;" parent="1" vertex="1">
          <mxGeometry x="804" y="182" width="52" height="30" as="geometry" />
        </mxCell>
        <mxCell id="lJtzv6-tOGQJy9W8qOaK-31" value="1" style="text;html=1;strokeColor=none;fillColor=none;align=center;verticalAlign=middle;whiteSpace=wrap;rounded=0;fontSize=15;" parent="1" vertex="1">
          <mxGeometry x="694" y="182" width="40" height="30" as="geometry" />
        </mxCell>
        <mxCell id="lJtzv6-tOGQJy9W8qOaK-32" value="" style="endArrow=none;html=1;rounded=0;entryX=-0.006;entryY=0.963;entryDx=0;entryDy=0;entryPerimeter=0;" parent="1" target="lJtzv6-tOGQJy9W8qOaK-36" edge="1">
          <mxGeometry width="50" height="50" relative="1" as="geometry">
            <mxPoint x="534" y="210" as="sourcePoint" />
            <mxPoint x="280" y="323" as="targetPoint" />
          </mxGeometry>
        </mxCell>
        <mxCell id="lJtzv6-tOGQJy9W8qOaK-34" value="Contains" style="edgeLabel;html=1;align=center;verticalAlign=middle;resizable=0;points=[];fontSize=15;" parent="lJtzv6-tOGQJy9W8qOaK-32" vertex="1" connectable="0">
          <mxGeometry x="-0.2684" y="2" relative="1" as="geometry">
            <mxPoint x="-33" y="-18" as="offset" />
          </mxGeometry>
        </mxCell>
        <mxCell id="lJtzv6-tOGQJy9W8qOaK-35" value="0..*" style="text;html=1;strokeColor=none;fillColor=none;align=center;verticalAlign=middle;whiteSpace=wrap;rounded=0;fontSize=15;" parent="1" vertex="1">
          <mxGeometry x="482" y="181" width="52" height="30" as="geometry" />
        </mxCell>
        <mxCell id="lJtzv6-tOGQJy9W8qOaK-36" value="1" style="text;html=1;strokeColor=none;fillColor=none;align=center;verticalAlign=middle;whiteSpace=wrap;rounded=0;fontSize=15;" parent="1" vertex="1">
          <mxGeometry x="314" y="181" width="40" height="30" as="geometry" />
        </mxCell>
        <mxCell id="lJtzv6-tOGQJy9W8qOaK-39" value="" style="endArrow=none;html=1;rounded=0;entryX=0.455;entryY=1.01;entryDx=0;entryDy=0;entryPerimeter=0;exitX=0.5;exitY=0;exitDx=0;exitDy=0;" parent="1" source="lJtzv6-tOGQJy9W8qOaK-23" target="lJtzv6-tOGQJy9W8qOaK-3" edge="1">
          <mxGeometry width="50" height="50" relative="1" as="geometry">
            <mxPoint x="350" y="525" as="sourcePoint" />
            <mxPoint x="400" y="475" as="targetPoint" />
          </mxGeometry>
        </mxCell>
        <mxCell id="lJtzv6-tOGQJy9W8qOaK-52" value="User answered to" style="edgeLabel;html=1;align=center;verticalAlign=middle;resizable=0;points=[];fontSize=15;" parent="lJtzv6-tOGQJy9W8qOaK-39" vertex="1" connectable="0">
          <mxGeometry x="-0.0879" y="-3" relative="1" as="geometry">
            <mxPoint x="65" y="-11" as="offset" />
          </mxGeometry>
        </mxCell>
        <mxCell id="lJtzv6-tOGQJy9W8qOaK-40" value="" style="endArrow=none;html=1;rounded=0;entryX=0;entryY=-0.007;entryDx=0;entryDy=0;exitX=0.487;exitY=1.008;exitDx=0;exitDy=0;entryPerimeter=0;exitPerimeter=0;" parent="1" source="lJtzv6-tOGQJy9W8qOaK-68" target="lJtzv6-tOGQJy9W8qOaK-58" edge="1">
          <mxGeometry width="50" height="50" relative="1" as="geometry">
            <mxPoint x="385" y="765" as="sourcePoint" />
            <mxPoint x="435" y="715" as="targetPoint" />
            <Array as="points">
              <mxPoint x="934" y="602" />
              <mxPoint x="616" y="602" />
            </Array>
          </mxGeometry>
        </mxCell>
        <mxCell id="lJtzv6-tOGQJy9W8qOaK-47" value="" style="endArrow=none;html=1;rounded=0;entryX=0;entryY=0.272;entryDx=0;entryDy=0;entryPerimeter=0;exitX=1;exitY=0.572;exitDx=0;exitDy=0;exitPerimeter=0;" parent="1" source="lJtzv6-tOGQJy9W8qOaK-13" target="lJtzv6-tOGQJy9W8qOaK-24" edge="1">
          <mxGeometry width="50" height="50" relative="1" as="geometry">
            <mxPoint x="430" y="619" as="sourcePoint" />
            <mxPoint x="480" y="569" as="targetPoint" />
          </mxGeometry>
        </mxCell>
        <mxCell id="lJtzv6-tOGQJy9W8qOaK-48" value="Answered" style="edgeLabel;html=1;align=center;verticalAlign=middle;resizable=0;points=[];fontSize=15;" parent="lJtzv6-tOGQJy9W8qOaK-47" vertex="1" connectable="0">
          <mxGeometry x="-0.1084" y="2" relative="1" as="geometry">
            <mxPoint x="2" y="-23" as="offset" />
          </mxGeometry>
        </mxCell>
        <mxCell id="lJtzv6-tOGQJy9W8qOaK-50" value="1" style="text;html=1;strokeColor=none;fillColor=none;align=center;verticalAlign=middle;whiteSpace=wrap;rounded=0;fontSize=15;" parent="1" vertex="1">
          <mxGeometry x="314" y="483" width="40" height="30" as="geometry" />
        </mxCell>
        <mxCell id="lJtzv6-tOGQJy9W8qOaK-51" value="0..*" style="text;html=1;strokeColor=none;fillColor=none;align=center;verticalAlign=middle;whiteSpace=wrap;rounded=0;fontSize=15;" parent="1" vertex="1">
          <mxGeometry x="474" y="483" width="52" height="30" as="geometry" />
        </mxCell>
        <mxCell id="lJtzv6-tOGQJy9W8qOaK-54" value="1" style="text;html=1;strokeColor=none;fillColor=none;align=center;verticalAlign=middle;whiteSpace=wrap;rounded=0;fontSize=15;" parent="1" vertex="1">
          <mxGeometry x="597" y="267" width="40" height="30" as="geometry" />
        </mxCell>
        <mxCell id="lJtzv6-tOGQJy9W8qOaK-55" value="0..*" style="text;html=1;strokeColor=none;fillColor=none;align=center;verticalAlign=middle;whiteSpace=wrap;rounded=0;fontSize=15;" parent="1" vertex="1">
          <mxGeometry x="606" y="420" width="40" height="30" as="geometry" />
        </mxCell>
        <mxCell id="lJtzv6-tOGQJy9W8qOaK-58" value="0..*" style="text;html=1;strokeColor=none;fillColor=none;align=center;verticalAlign=middle;whiteSpace=wrap;rounded=0;fontSize=15;" parent="1" vertex="1">
          <mxGeometry x="616" y="565" width="40" height="30" as="geometry" />
        </mxCell>
        <mxCell id="lJtzv6-tOGQJy9W8qOaK-59" value="0..*" style="text;html=1;strokeColor=none;fillColor=none;align=center;verticalAlign=middle;whiteSpace=wrap;rounded=0;fontSize=15;" parent="1" vertex="1">
          <mxGeometry x="934" y="328" width="40" height="30" as="geometry" />
        </mxCell>
        <mxCell id="lJtzv6-tOGQJy9W8qOaK-63" value="SelectedAnswer" style="swimlane;fontStyle=0;childLayout=stackLayout;horizontal=1;startSize=26;horizontalStack=0;resizeParent=1;resizeParentMax=0;resizeLast=0;collapsible=1;marginBottom=0;align=center;fontSize=14;" parent="1" vertex="1">
          <mxGeometry x="694" y="622" width="160" height="56" as="geometry" />
        </mxCell>
        <mxCell id="lJtzv6-tOGQJy9W8qOaK-65" value="Order" style="text;strokeColor=none;fillColor=none;spacingLeft=4;spacingRight=4;overflow=hidden;rotatable=0;points=[[0,0.5],[1,0.5]];portConstraint=eastwest;fontSize=12;whiteSpace=wrap;html=1;" parent="lJtzv6-tOGQJy9W8qOaK-63" vertex="1">
          <mxGeometry y="26" width="160" height="30" as="geometry" />
        </mxCell>
        <mxCell id="lJtzv6-tOGQJy9W8qOaK-66" value="" style="endArrow=none;html=1;rounded=0;entryX=0.5;entryY=0;entryDx=0;entryDy=0;" parent="1" target="lJtzv6-tOGQJy9W8qOaK-63" edge="1">
          <mxGeometry width="50" height="50" relative="1" as="geometry">
            <mxPoint x="774" y="602" as="sourcePoint" />
            <mxPoint x="684" y="642" as="targetPoint" />
          </mxGeometry>
        </mxCell>
        <mxCell id="nsPyMw2YwcP8bO_YUOHx-1" value="" style="endArrow=none;html=1;rounded=0;entryX=0.5;entryY=1.006;entryDx=0;entryDy=0;entryPerimeter=0;exitX=0.5;exitY=0;exitDx=0;exitDy=0;" parent="1" source="lJtzv6-tOGQJy9W8qOaK-11" target="lJtzv6-tOGQJy9W8qOaK-67" edge="1">
          <mxGeometry width="50" height="50" relative="1" as="geometry">
            <mxPoint x="204" y="412" as="sourcePoint" />
            <mxPoint x="254" y="362" as="targetPoint" />
          </mxGeometry>
        </mxCell>
        <mxCell id="nsPyMw2YwcP8bO_YUOHx-3" value="CompletedQuizes" style="swimlane;fontStyle=0;childLayout=stackLayout;horizontal=1;startSize=26;horizontalStack=0;resizeParent=1;resizeParentMax=0;resizeLast=0;collapsible=1;marginBottom=0;align=center;fontSize=14;" parent="1" vertex="1">
          <mxGeometry x="340" y="355" width="160" height="86" as="geometry" />
        </mxCell>
        <mxCell id="nsPyMw2YwcP8bO_YUOHx-4" value="Score" style="text;strokeColor=none;fillColor=none;spacingLeft=4;spacingRight=4;overflow=hidden;rotatable=0;points=[[0,0.5],[1,0.5]];portConstraint=eastwest;fontSize=12;whiteSpace=wrap;html=1;" parent="nsPyMw2YwcP8bO_YUOHx-3" vertex="1">
          <mxGeometry y="26" width="160" height="30" as="geometry" />
        </mxCell>
        <mxCell id="ovTWipUCg8--vFzlMRwv-1" value="HasStarted" style="text;strokeColor=none;fillColor=none;spacingLeft=4;spacingRight=4;overflow=hidden;rotatable=0;points=[[0,0.5],[1,0.5]];portConstraint=eastwest;fontSize=12;whiteSpace=wrap;html=1;" vertex="1" parent="nsPyMw2YwcP8bO_YUOHx-3">
          <mxGeometry y="56" width="160" height="30" as="geometry" />
        </mxCell>
        <mxCell id="nsPyMw2YwcP8bO_YUOHx-5" value="" style="endArrow=none;html=1;rounded=0;entryX=0;entryY=0.19;entryDx=0;entryDy=0;entryPerimeter=0;" parent="1" target="nsPyMw2YwcP8bO_YUOHx-4" edge="1">
          <mxGeometry width="50" height="50" relative="1" as="geometry">
            <mxPoint x="234" y="387" as="sourcePoint" />
            <mxPoint x="274" y="368" as="targetPoint" />
          </mxGeometry>
        </mxCell>
        <mxCell id="nsPyMw2YwcP8bO_YUOHx-7" value="0..*" style="text;html=1;strokeColor=none;fillColor=none;align=center;verticalAlign=middle;whiteSpace=wrap;rounded=0;fontSize=15;" parent="1" vertex="1">
          <mxGeometry x="234" y="325" width="40" height="30" as="geometry" />
        </mxCell>
        <mxCell id="nsPyMw2YwcP8bO_YUOHx-8" value="0..*" style="text;html=1;strokeColor=none;fillColor=none;align=center;verticalAlign=middle;whiteSpace=wrap;rounded=0;fontSize=15;" parent="1" vertex="1">
          <mxGeometry x="200" y="390" width="40" height="30" as="geometry" />
        </mxCell>
      </root>
    </mxGraphModel>
  </diagram>
</mxfile>
